<svg width="1200" height="698" viewBox="0 0 1440 698" fill="none" xmlns="http://www.w3.org/2000/svg">
<rect width="1200" height="698" fill="white"/>
<path d="M124.503 147H129.927V124.848L140.511 147H142.815L153.423 124.848V147H158.823V112.44H153.615L141.663 136.92L129.711 112.44H124.503V147ZM167.533 158.52H172.957L187.405 121.08H181.621L174.589 139.632L167.341 121.08H161.317L171.805 146.808L167.533 158.52ZM210.506 147.72C212.874 147.72 215.09 147.32 217.154 146.52C219.218 145.72 220.882 144.52 222.146 142.92C223.426 141.32 224.066 139.328 224.066 136.944C224.066 135.232 223.746 133.816 223.106 132.696C222.482 131.56 221.674 130.648 220.682 129.96C219.706 129.272 218.69 128.736 217.634 128.352C216.594 127.968 215.65 127.664 214.802 127.44L208.61 125.712C207.842 125.504 207.074 125.248 206.306 124.944C205.538 124.624 204.898 124.2 204.386 123.672C203.874 123.128 203.618 122.432 203.618 121.584C203.618 120.688 203.914 119.904 204.506 119.232C205.114 118.56 205.906 118.04 206.882 117.672C207.874 117.304 208.946 117.136 210.098 117.168C211.874 117.216 213.474 117.736 214.898 118.728C216.322 119.72 217.218 121.128 217.586 122.952L223.802 121.872C223.034 118.672 221.458 116.2 219.074 114.456C216.69 112.696 213.722 111.8 210.17 111.768C207.834 111.752 205.706 112.128 203.786 112.896C201.882 113.648 200.362 114.776 199.226 116.28C198.106 117.784 197.546 119.648 197.546 121.872C197.546 123.392 197.794 124.672 198.29 125.712C198.802 126.736 199.45 127.576 200.234 128.232C201.034 128.888 201.874 129.408 202.754 129.792C203.65 130.176 204.482 130.48 205.25 130.704L214.178 133.344C216.738 134.112 218.018 135.44 218.018 137.328C218.018 138.384 217.674 139.288 216.986 140.04C216.314 140.776 215.434 141.336 214.346 141.72C213.258 142.104 212.098 142.296 210.866 142.296C208.786 142.296 206.946 141.736 205.346 140.616C203.762 139.496 202.714 137.912 202.202 135.864L196.202 136.776C196.57 139.032 197.402 140.984 198.698 142.632C200.01 144.264 201.674 145.52 203.69 146.4C205.722 147.28 207.994 147.72 210.506 147.72ZM227.773 147H233.677V134.52L243.589 147H251.245L240.325 134.04L250.381 121.08H243.157L233.677 133.56V112.44H227.821L227.773 147ZM252.689 117.144H258.473V111.84H252.689V117.144ZM252.689 147H258.473V121.08H252.689V147ZM264.702 147H270.486V111.72H264.702V147ZM276.715 147H282.499V111.72H276.715V147ZM298.256 147.72C301.6 147.72 304.216 146.976 306.104 145.488C308.008 144 308.96 141.952 308.96 139.344C308.96 137.328 308.32 135.744 307.04 134.592C305.776 133.44 303.592 132.464 300.488 131.664C298.472 131.152 296.952 130.72 295.928 130.368C294.92 130.016 294.248 129.664 293.912 129.312C293.576 128.96 293.408 128.536 293.408 128.04C293.408 127.176 293.824 126.504 294.656 126.024C295.488 125.528 296.584 125.312 297.944 125.376C299.352 125.456 300.48 125.816 301.328 126.456C302.192 127.096 302.704 127.968 302.864 129.072L308.768 128.016C308.448 125.68 307.304 123.824 305.336 122.448C303.368 121.056 300.872 120.36 297.848 120.36C294.76 120.36 292.288 121.08 290.432 122.52C288.576 123.96 287.648 125.896 287.648 128.328C287.648 130.264 288.296 131.792 289.592 132.912C290.904 134.032 293.184 135.016 296.432 135.864C298.384 136.376 299.824 136.808 300.752 137.16C301.696 137.496 302.312 137.84 302.6 138.192C302.888 138.544 303.032 139.016 303.032 139.608C303.032 140.568 302.648 141.328 301.88 141.888C301.112 142.432 300.04 142.704 298.664 142.704C297.08 142.704 295.76 142.336 294.704 141.6C293.664 140.864 293 139.856 292.712 138.576L286.808 139.488C287.24 142.096 288.456 144.12 290.456 145.56C292.456 147 295.056 147.72 298.256 147.72Z" fill="black"/>
<path d="M121.26 182H122.862V176.276H129.684V182H131.286V169.04H129.684V174.755H122.862V169.04H121.26V182ZM138.023 182.27C138.965 182.27 139.814 182.036 140.57 181.568C141.326 181.094 141.896 180.428 142.28 179.57L140.741 179.039C140.183 180.179 139.253 180.749 137.951 180.749C137.057 180.749 136.355 180.476 135.845 179.93C135.341 179.378 135.056 178.598 134.99 177.59H142.442C142.49 176.438 142.34 175.445 141.992 174.611C141.65 173.777 141.134 173.135 140.444 172.685C139.76 172.235 138.929 172.01 137.951 172.01C137.009 172.01 136.187 172.223 135.485 172.649C134.783 173.069 134.237 173.669 133.847 174.449C133.463 175.223 133.271 176.141 133.271 177.203C133.271 178.217 133.466 179.105 133.856 179.867C134.252 180.623 134.807 181.214 135.521 181.64C136.235 182.06 137.069 182.27 138.023 182.27ZM138.005 173.45C139.655 173.45 140.579 174.401 140.777 176.303H135.017C135.131 175.379 135.44 174.674 135.944 174.188C136.448 173.696 137.135 173.45 138.005 173.45ZM144.446 182H146.057V177.122C146.057 176.546 146.135 175.991 146.291 175.457C146.447 174.923 146.762 174.488 147.236 174.152C147.572 173.906 147.941 173.762 148.343 173.72C148.751 173.678 149.123 173.699 149.459 173.783V172.28C149.027 172.184 148.553 172.184 148.037 172.28C147.521 172.376 147.077 172.574 146.705 172.874C146.381 173.102 146.105 173.417 145.877 173.819V172.28H144.446V182ZM155.197 182.27C156.139 182.27 156.988 182.036 157.744 181.568C158.5 181.094 159.07 180.428 159.454 179.57L157.915 179.039C157.357 180.179 156.427 180.749 155.125 180.749C154.231 180.749 153.529 180.476 153.019 179.93C152.515 179.378 152.23 178.598 152.164 177.59H159.616C159.664 176.438 159.514 175.445 159.166 174.611C158.824 173.777 158.308 173.135 157.618 172.685C156.934 172.235 156.103 172.01 155.125 172.01C154.183 172.01 153.361 172.223 152.659 172.649C151.957 173.069 151.411 173.669 151.021 174.449C150.637 175.223 150.445 176.141 150.445 177.203C150.445 178.217 150.64 179.105 151.03 179.867C151.426 180.623 151.981 181.214 152.695 181.64C153.409 182.06 154.243 182.27 155.197 182.27ZM155.179 173.45C156.829 173.45 157.753 174.401 157.951 176.303H152.191C152.305 175.379 152.614 174.674 153.118 174.188C153.622 173.696 154.309 173.45 155.179 173.45ZM167.986 182.27C169.606 182.27 170.806 181.676 171.586 180.488V182H173.008V175.988C173.008 175.604 172.99 175.238 172.954 174.89C172.918 174.536 172.831 174.209 172.693 173.909C172.417 173.273 171.961 172.799 171.325 172.487C170.689 172.169 169.933 172.01 169.057 172.01C167.959 172.01 167.071 172.253 166.393 172.739C165.721 173.225 165.271 173.894 165.043 174.746L166.564 175.205C166.738 174.611 167.047 174.179 167.491 173.909C167.935 173.639 168.451 173.504 169.039 173.504C169.879 173.504 170.482 173.693 170.848 174.071C171.22 174.443 171.415 175.016 171.433 175.79C170.713 175.892 169.957 176 169.165 176.114C168.379 176.222 167.68 176.357 167.068 176.519C166.33 176.735 165.748 177.074 165.322 177.536C164.896 177.992 164.683 178.604 164.683 179.372C164.683 179.894 164.806 180.374 165.052 180.812C165.304 181.25 165.673 181.604 166.159 181.874C166.651 182.138 167.26 182.27 167.986 182.27ZM168.229 180.929C167.539 180.929 167.041 180.77 166.735 180.452C166.429 180.128 166.276 179.765 166.276 179.363C166.276 178.907 166.426 178.559 166.726 178.319C167.032 178.073 167.386 177.887 167.788 177.761C168.262 177.629 168.814 177.518 169.444 177.428C170.074 177.338 170.731 177.248 171.415 177.158C171.415 177.38 171.403 177.632 171.379 177.914C171.361 178.196 171.319 178.454 171.253 178.688C171.139 179.288 170.821 179.813 170.299 180.263C169.783 180.707 169.093 180.929 168.229 180.929ZM175.348 182H176.959V177.122C176.959 176.546 177.037 175.991 177.193 175.457C177.349 174.923 177.664 174.488 178.138 174.152C178.474 173.906 178.843 173.762 179.245 173.72C179.653 173.678 180.025 173.699 180.361 173.783V172.28C179.929 172.184 179.455 172.184 178.939 172.28C178.423 172.376 177.979 172.574 177.607 172.874C177.283 173.102 177.007 173.417 176.779 173.819V172.28H175.348V182ZM186.099 182.27C187.041 182.27 187.89 182.036 188.646 181.568C189.402 181.094 189.972 180.428 190.356 179.57L188.817 179.039C188.259 180.179 187.329 180.749 186.027 180.749C185.133 180.749 184.431 180.476 183.921 179.93C183.417 179.378 183.132 178.598 183.066 177.59H190.518C190.566 176.438 190.416 175.445 190.068 174.611C189.726 173.777 189.21 173.135 188.52 172.685C187.836 172.235 187.005 172.01 186.027 172.01C185.085 172.01 184.263 172.223 183.561 172.649C182.859 173.069 182.313 173.669 181.923 174.449C181.539 175.223 181.347 176.141 181.347 177.203C181.347 178.217 181.542 179.105 181.932 179.867C182.328 180.623 182.883 181.214 183.597 181.64C184.311 182.06 185.145 182.27 186.099 182.27ZM186.081 173.45C187.731 173.45 188.655 174.401 188.853 176.303H183.093C183.207 175.379 183.516 174.674 184.02 174.188C184.524 173.696 185.211 173.45 186.081 173.45ZM198.888 182.27C200.508 182.27 201.708 181.676 202.488 180.488V182H203.91V175.988C203.91 175.604 203.892 175.238 203.856 174.89C203.82 174.536 203.733 174.209 203.595 173.909C203.319 173.273 202.863 172.799 202.227 172.487C201.591 172.169 200.835 172.01 199.959 172.01C198.861 172.01 197.973 172.253 197.295 172.739C196.623 173.225 196.173 173.894 195.945 174.746L197.466 175.205C197.64 174.611 197.949 174.179 198.393 173.909C198.837 173.639 199.353 173.504 199.941 173.504C200.781 173.504 201.384 173.693 201.75 174.071C202.122 174.443 202.317 175.016 202.335 175.79C201.615 175.892 200.859 176 200.067 176.114C199.281 176.222 198.582 176.357 197.97 176.519C197.232 176.735 196.65 177.074 196.224 177.536C195.798 177.992 195.585 178.604 195.585 179.372C195.585 179.894 195.708 180.374 195.954 180.812C196.206 181.25 196.575 181.604 197.061 181.874C197.553 182.138 198.162 182.27 198.888 182.27ZM199.131 180.929C198.441 180.929 197.943 180.77 197.637 180.452C197.331 180.128 197.178 179.765 197.178 179.363C197.178 178.907 197.328 178.559 197.628 178.319C197.934 178.073 198.288 177.887 198.69 177.761C199.164 177.629 199.716 177.518 200.346 177.428C200.976 177.338 201.633 177.248 202.317 177.158C202.317 177.38 202.305 177.632 202.281 177.914C202.263 178.196 202.221 178.454 202.155 178.688C202.041 179.288 201.723 179.813 201.201 180.263C200.685 180.707 199.995 180.929 199.131 180.929ZM210.781 182H212.383V173.603H214.939V172.28H212.383V171.497C212.383 170.567 212.854 170.102 213.796 170.102H214.939V168.77H213.706C213.34 168.77 212.947 168.806 212.527 168.878C212.107 168.944 211.729 169.16 211.393 169.526C211.105 169.838 210.931 170.195 210.871 170.597C210.811 170.993 210.781 171.377 210.781 171.749V172.28H209.134V173.603H210.781V182ZM220.236 182.27C221.178 182.27 222.027 182.036 222.783 181.568C223.539 181.094 224.109 180.428 224.493 179.57L222.954 179.039C222.396 180.179 221.466 180.749 220.164 180.749C219.27 180.749 218.568 180.476 218.058 179.93C217.554 179.378 217.269 178.598 217.203 177.59H224.655C224.703 176.438 224.553 175.445 224.205 174.611C223.863 173.777 223.347 173.135 222.657 172.685C221.973 172.235 221.142 172.01 220.164 172.01C219.222 172.01 218.4 172.223 217.698 172.649C216.996 173.069 216.45 173.669 216.06 174.449C215.676 175.223 215.484 176.141 215.484 177.203C215.484 178.217 215.679 179.105 216.069 179.867C216.465 180.623 217.02 181.214 217.734 181.64C218.448 182.06 219.282 182.27 220.236 182.27ZM220.218 173.45C221.868 173.45 222.792 174.401 222.99 176.303H217.23C217.344 175.379 217.653 174.674 218.157 174.188C218.661 173.696 219.348 173.45 220.218 173.45ZM228.377 182H229.709L232.058 174.611L234.407 182H235.739L238.709 172.28H237.125L234.947 179.39L232.769 172.28H231.356L229.169 179.39L227 172.28L225.407 172.271L228.377 182ZM247.61 182.261C248.822 182.261 249.773 181.994 250.463 181.46C251.153 180.926 251.498 180.188 251.498 179.246C251.498 178.742 251.393 178.319 251.183 177.977C250.973 177.629 250.619 177.329 250.121 177.077C249.629 176.819 248.954 176.582 248.096 176.366C247.334 176.174 246.752 176.003 246.35 175.853C245.954 175.703 245.681 175.544 245.531 175.376C245.387 175.208 245.315 175.007 245.315 174.773C245.315 174.359 245.51 174.029 245.9 173.783C246.296 173.537 246.809 173.423 247.439 173.441C248.099 173.459 248.642 173.621 249.068 173.927C249.494 174.227 249.746 174.635 249.824 175.151L251.462 174.854C251.36 173.996 250.94 173.309 250.202 172.793C249.47 172.271 248.549 172.01 247.439 172.01C246.317 172.01 245.414 172.271 244.73 172.793C244.046 173.309 243.704 173.996 243.704 174.854C243.704 175.316 243.806 175.709 244.01 176.033C244.22 176.357 244.571 176.642 245.063 176.888C245.561 177.134 246.239 177.371 247.097 177.599C247.889 177.809 248.48 177.992 248.87 178.148C249.266 178.298 249.527 178.457 249.653 178.625C249.779 178.793 249.842 179.015 249.842 179.291C249.842 179.765 249.65 180.14 249.266 180.416C248.888 180.692 248.369 180.83 247.709 180.83C247.007 180.83 246.419 180.677 245.945 180.371C245.471 180.059 245.168 179.639 245.036 179.111L243.398 179.372C243.566 180.284 244.019 180.995 244.757 181.505C245.501 182.009 246.452 182.261 247.61 182.261ZM253.474 182H255.103V177.32L259.522 182H261.763L256.966 177.14L261.259 172.28H259.18L255.103 176.96V169.04H253.483L253.474 182ZM262.838 170.561H264.44V168.905H262.838V170.561ZM262.838 182H264.44V172.28H262.838V182ZM267.321 182H268.923V168.77H267.321V182ZM271.803 182H273.405V168.77H271.803V182ZM279.778 182.261C280.99 182.261 281.941 181.994 282.631 181.46C283.321 180.926 283.666 180.188 283.666 179.246C283.666 178.742 283.561 178.319 283.351 177.977C283.141 177.629 282.787 177.329 282.289 177.077C281.797 176.819 281.122 176.582 280.264 176.366C279.502 176.174 278.92 176.003 278.518 175.853C278.122 175.703 277.849 175.544 277.699 175.376C277.555 175.208 277.483 175.007 277.483 174.773C277.483 174.359 277.678 174.029 278.068 173.783C278.464 173.537 278.977 173.423 279.607 173.441C280.267 173.459 280.81 173.621 281.236 173.927C281.662 174.227 281.914 174.635 281.992 175.151L283.63 174.854C283.528 173.996 283.108 173.309 282.37 172.793C281.638 172.271 280.717 172.01 279.607 172.01C278.485 172.01 277.582 172.271 276.898 172.793C276.214 173.309 275.872 173.996 275.872 174.854C275.872 175.316 275.974 175.709 276.178 176.033C276.388 176.357 276.739 176.642 277.231 176.888C277.729 177.134 278.407 177.371 279.265 177.599C280.057 177.809 280.648 177.992 281.038 178.148C281.434 178.298 281.695 178.457 281.821 178.625C281.947 178.793 282.01 179.015 282.01 179.291C282.01 179.765 281.818 180.14 281.434 180.416C281.056 180.692 280.537 180.83 279.877 180.83C279.175 180.83 278.587 180.677 278.113 180.371C277.639 180.059 277.336 179.639 277.204 179.111L275.566 179.372C275.734 180.284 276.187 180.995 276.925 181.505C277.669 182.009 278.62 182.261 279.778 182.261ZM289.434 170.561H291.036V168.905H289.434V170.561ZM289.434 182H291.036V172.28H289.434V182ZM297.331 186.32H298.942V181.1C299.29 181.466 299.701 181.754 300.175 181.964C300.655 182.168 301.198 182.27 301.804 182.27C302.71 182.27 303.487 182.045 304.135 181.595C304.789 181.139 305.29 180.524 305.638 179.75C305.986 178.976 306.16 178.103 306.16 177.131C306.16 176.159 305.986 175.286 305.638 174.512C305.29 173.738 304.789 173.129 304.135 172.685C303.487 172.235 302.713 172.01 301.813 172.01C301.153 172.01 300.568 172.13 300.058 172.37C299.548 172.61 299.116 172.943 298.762 173.369V172.28H297.331V186.32ZM301.606 180.803C300.628 180.803 299.908 180.458 299.446 179.768C298.99 179.078 298.762 178.199 298.762 177.131C298.762 176.057 298.99 175.181 299.446 174.503C299.908 173.819 300.613 173.477 301.561 173.477C302.221 173.477 302.764 173.639 303.19 173.963C303.622 174.287 303.94 174.725 304.144 175.277C304.354 175.829 304.459 176.447 304.459 177.131C304.459 177.821 304.354 178.445 304.144 179.003C303.934 179.555 303.619 179.993 303.199 180.317C302.779 180.641 302.248 180.803 301.606 180.803ZM312.273 182.27C313.239 182.27 314.07 182.054 314.766 181.622C315.468 181.19 316.008 180.587 316.386 179.813C316.77 179.039 316.962 178.145 316.962 177.131C316.962 176.129 316.773 175.244 316.395 174.476C316.023 173.702 315.486 173.099 314.784 172.667C314.082 172.229 313.245 172.01 312.273 172.01C311.325 172.01 310.5 172.226 309.798 172.658C309.096 173.084 308.553 173.681 308.169 174.449C307.785 175.217 307.593 176.111 307.593 177.131C307.593 178.133 307.779 179.021 308.151 179.795C308.529 180.569 309.069 181.175 309.771 181.613C310.473 182.051 311.307 182.27 312.273 182.27ZM312.273 180.749C311.295 180.749 310.554 180.422 310.05 179.768C309.546 179.108 309.294 178.229 309.294 177.131C309.294 176.069 309.537 175.205 310.023 174.539C310.509 173.867 311.259 173.531 312.273 173.531C313.269 173.531 314.016 173.858 314.514 174.512C315.012 175.166 315.261 176.039 315.261 177.131C315.261 178.199 315.012 179.069 314.514 179.741C314.022 180.413 313.275 180.749 312.273 180.749ZM322.475 182.261C323.687 182.261 324.638 181.994 325.328 181.46C326.018 180.926 326.363 180.188 326.363 179.246C326.363 178.742 326.258 178.319 326.048 177.977C325.838 177.629 325.484 177.329 324.986 177.077C324.494 176.819 323.819 176.582 322.961 176.366C322.199 176.174 321.617 176.003 321.215 175.853C320.819 175.703 320.546 175.544 320.396 175.376C320.252 175.208 320.18 175.007 320.18 174.773C320.18 174.359 320.375 174.029 320.765 173.783C321.161 173.537 321.674 173.423 322.304 173.441C322.964 173.459 323.507 173.621 323.933 173.927C324.359 174.227 324.611 174.635 324.689 175.151L326.327 174.854C326.225 173.996 325.805 173.309 325.067 172.793C324.335 172.271 323.414 172.01 322.304 172.01C321.182 172.01 320.279 172.271 319.595 172.793C318.911 173.309 318.569 173.996 318.569 174.854C318.569 175.316 318.671 175.709 318.875 176.033C319.085 176.357 319.436 176.642 319.928 176.888C320.426 177.134 321.104 177.371 321.962 177.599C322.754 177.809 323.345 177.992 323.735 178.148C324.131 178.298 324.392 178.457 324.518 178.625C324.644 178.793 324.707 179.015 324.707 179.291C324.707 179.765 324.515 180.14 324.131 180.416C323.753 180.692 323.234 180.83 322.574 180.83C321.872 180.83 321.284 180.677 320.81 180.371C320.336 180.059 320.033 179.639 319.901 179.111L318.263 179.372C318.431 180.284 318.884 180.995 319.622 181.505C320.366 182.009 321.317 182.261 322.475 182.261ZM332.02 182.261C333.232 182.261 334.183 181.994 334.873 181.46C335.563 180.926 335.908 180.188 335.908 179.246C335.908 178.742 335.803 178.319 335.593 177.977C335.383 177.629 335.029 177.329 334.531 177.077C334.039 176.819 333.364 176.582 332.506 176.366C331.744 176.174 331.162 176.003 330.76 175.853C330.364 175.703 330.091 175.544 329.941 175.376C329.797 175.208 329.725 175.007 329.725 174.773C329.725 174.359 329.92 174.029 330.31 173.783C330.706 173.537 331.219 173.423 331.849 173.441C332.509 173.459 333.052 173.621 333.478 173.927C333.904 174.227 334.156 174.635 334.234 175.151L335.872 174.854C335.77 173.996 335.35 173.309 334.612 172.793C333.88 172.271 332.959 172.01 331.849 172.01C330.727 172.01 329.824 172.271 329.14 172.793C328.456 173.309 328.114 173.996 328.114 174.854C328.114 175.316 328.216 175.709 328.42 176.033C328.63 176.357 328.981 176.642 329.473 176.888C329.971 177.134 330.649 177.371 331.507 177.599C332.299 177.809 332.89 177.992 333.28 178.148C333.676 178.298 333.937 178.457 334.063 178.625C334.189 178.793 334.252 179.015 334.252 179.291C334.252 179.765 334.06 180.14 333.676 180.416C333.298 180.692 332.779 180.83 332.119 180.83C331.417 180.83 330.829 180.677 330.355 180.371C329.881 180.059 329.578 179.639 329.446 179.111L327.808 179.372C327.976 180.284 328.429 180.995 329.167 181.505C329.911 182.009 330.862 182.261 332.02 182.261ZM342.105 182.27C343.047 182.27 343.896 182.036 344.652 181.568C345.408 181.094 345.978 180.428 346.362 179.57L344.823 179.039C344.265 180.179 343.335 180.749 342.033 180.749C341.139 180.749 340.437 180.476 339.927 179.93C339.423 179.378 339.138 178.598 339.072 177.59H346.524C346.572 176.438 346.422 175.445 346.074 174.611C345.732 173.777 345.216 173.135 344.526 172.685C343.842 172.235 343.011 172.01 342.033 172.01C341.091 172.01 340.269 172.223 339.567 172.649C338.865 173.069 338.319 173.669 337.929 174.449C337.545 175.223 337.353 176.141 337.353 177.203C337.353 178.217 337.548 179.105 337.938 179.867C338.334 180.623 338.889 181.214 339.603 181.64C340.317 182.06 341.151 182.27 342.105 182.27ZM342.087 173.45C343.737 173.45 344.661 174.401 344.859 176.303H339.099C339.213 175.379 339.522 174.674 340.026 174.188C340.53 173.696 341.217 173.45 342.087 173.45ZM352.2 182.261C353.412 182.261 354.363 181.994 355.053 181.46C355.743 180.926 356.088 180.188 356.088 179.246C356.088 178.742 355.983 178.319 355.773 177.977C355.563 177.629 355.209 177.329 354.711 177.077C354.219 176.819 353.544 176.582 352.686 176.366C351.924 176.174 351.342 176.003 350.94 175.853C350.544 175.703 350.271 175.544 350.121 175.376C349.977 175.208 349.905 175.007 349.905 174.773C349.905 174.359 350.1 174.029 350.49 173.783C350.886 173.537 351.399 173.423 352.029 173.441C352.689 173.459 353.232 173.621 353.658 173.927C354.084 174.227 354.336 174.635 354.414 175.151L356.052 174.854C355.95 173.996 355.53 173.309 354.792 172.793C354.06 172.271 353.139 172.01 352.029 172.01C350.907 172.01 350.004 172.271 349.32 172.793C348.636 173.309 348.294 173.996 348.294 174.854C348.294 175.316 348.396 175.709 348.6 176.033C348.81 176.357 349.161 176.642 349.653 176.888C350.151 177.134 350.829 177.371 351.687 177.599C352.479 177.809 353.07 177.992 353.46 178.148C353.856 178.298 354.117 178.457 354.243 178.625C354.369 178.793 354.432 179.015 354.432 179.291C354.432 179.765 354.24 180.14 353.856 180.416C353.478 180.692 352.959 180.83 352.299 180.83C351.597 180.83 351.009 180.677 350.535 180.371C350.061 180.059 349.758 179.639 349.626 179.111L347.988 179.372C348.156 180.284 348.609 180.995 349.347 181.505C350.091 182.009 351.042 182.261 352.2 182.261ZM361.745 182.261C362.957 182.261 363.908 181.994 364.598 181.46C365.288 180.926 365.633 180.188 365.633 179.246C365.633 178.742 365.528 178.319 365.318 177.977C365.108 177.629 364.754 177.329 364.256 177.077C363.764 176.819 363.089 176.582 362.231 176.366C361.469 176.174 360.887 176.003 360.485 175.853C360.089 175.703 359.816 175.544 359.666 175.376C359.522 175.208 359.45 175.007 359.45 174.773C359.45 174.359 359.645 174.029 360.035 173.783C360.431 173.537 360.944 173.423 361.574 173.441C362.234 173.459 362.777 173.621 363.203 173.927C363.629 174.227 363.881 174.635 363.959 175.151L365.597 174.854C365.495 173.996 365.075 173.309 364.337 172.793C363.605 172.271 362.684 172.01 361.574 172.01C360.452 172.01 359.549 172.271 358.865 172.793C358.181 173.309 357.839 173.996 357.839 174.854C357.839 175.316 357.941 175.709 358.145 176.033C358.355 176.357 358.706 176.642 359.198 176.888C359.696 177.134 360.374 177.371 361.232 177.599C362.024 177.809 362.615 177.992 363.005 178.148C363.401 178.298 363.662 178.457 363.788 178.625C363.914 178.793 363.977 179.015 363.977 179.291C363.977 179.765 363.785 180.14 363.401 180.416C363.023 180.692 362.504 180.83 361.844 180.83C361.142 180.83 360.554 180.677 360.08 180.371C359.606 180.059 359.303 179.639 359.171 179.111L357.533 179.372C357.701 180.284 358.154 180.995 358.892 181.505C359.636 182.009 360.587 182.261 361.745 182.261Z" fill="#4D4D4D"/>
<rect x="677" y="251" width="80" height="80" rx="12" fill="#EDF1FC"/>
<path d="M737.156 286.844C736.5 283.938 735.094 281.781 732.188 281.781H728.438V286.188C728.438 289.656 725.531 292.562 722.156 292.562H712.125C709.406 292.562 707.156 294.906 707.156 297.625V307.188C707.156 309.906 709.5 311.5 712.125 312.25C715.312 313.188 718.406 313.375 722.156 312.25C724.688 311.594 727.125 310.094 727.125 307.188V303.344H717.188V302.125H732.188C735.094 302.125 736.219 300.062 737.156 297.062C738.281 293.875 738.188 290.875 737.156 286.844ZM722.812 305.875C723.844 305.875 724.688 306.812 724.688 307.844C724.688 308.875 723.844 309.719 722.812 309.719C721.781 309.719 720.938 308.875 720.938 307.844C720.938 306.719 721.781 305.875 722.812 305.875ZM711.656 291.344H721.688C724.5 291.344 726.75 289 726.75 286.188V276.625C726.75 273.906 724.406 271.938 721.688 271.469C718.312 270.906 714.656 270.906 711.656 271.469C707.438 272.219 706.688 273.812 706.688 276.625V280.469H716.719V281.781H702.938C700.031 281.781 697.5 283.469 696.656 286.844C695.719 290.688 695.719 293.031 696.656 297.062C697.406 299.969 699.094 302.125 702 302.125H705.469V297.531C705.469 294.25 708.281 291.344 711.656 291.344ZM711.094 277.938C710.062 277.938 709.219 277.094 709.219 276.062C709.219 274.938 710.062 274.094 711.094 274.094C712.125 274.094 712.969 274.938 712.969 276.062C712.969 277.094 712.125 277.938 711.094 277.938Z" fill="#2351DC"/>
<path d="M769.1 283H772.715V275.455H778.025C778.225 275.455 778.49 275.445 778.82 275.425C779.16 275.405 779.47 275.375 779.75 275.335C781.61 275.045 782.99 274.27 783.89 273.01C784.8 271.74 785.255 270.215 785.255 268.435C785.255 266.645 784.805 265.12 783.905 263.86C783.015 262.59 781.63 261.81 779.75 261.52C779.47 261.47 779.165 261.44 778.835 261.43C778.505 261.41 778.235 261.4 778.025 261.4H769.1V283ZM772.715 272.08V264.79H777.875C778.075 264.79 778.3 264.8 778.55 264.82C778.8 264.84 779.03 264.875 779.24 264.925C779.84 265.075 780.31 265.345 780.65 265.735C781 266.115 781.245 266.545 781.385 267.025C781.535 267.505 781.61 267.975 781.61 268.435C781.61 268.895 781.535 269.365 781.385 269.845C781.245 270.325 781 270.755 780.65 271.135C780.31 271.515 779.84 271.78 779.24 271.93C779.03 271.99 778.8 272.03 778.55 272.05C778.3 272.07 778.075 272.08 777.875 272.08H772.715ZM789.49 290.2H792.88L801.91 266.8H798.295L793.9 278.395L789.37 266.8H785.605L792.16 282.88L789.49 290.2ZM813.943 283V279.97C812.933 280.12 812.033 280.16 811.243 280.09C810.453 280.02 809.878 279.685 809.518 279.085C809.328 278.775 809.223 278.375 809.203 277.885C809.193 277.385 809.188 276.815 809.188 276.175V269.635H813.943V266.8H809.188V262.3H805.588V266.8H802.648V269.635H805.588V276.385C805.588 277.315 805.598 278.145 805.618 278.875C805.638 279.595 805.833 280.305 806.203 281.005C806.623 281.775 807.238 282.34 808.048 282.7C808.858 283.05 809.773 283.235 810.793 283.255C811.823 283.285 812.873 283.2 813.943 283ZM816.497 283H820.157V274.675C820.157 273.365 820.342 272.355 820.712 271.645C821.092 270.925 821.572 270.43 822.152 270.16C822.742 269.88 823.342 269.74 823.952 269.74C824.812 269.74 825.497 269.93 826.007 270.31C826.517 270.68 826.892 271.155 827.132 271.735C827.382 272.305 827.542 272.9 827.612 273.52C827.692 274.14 827.732 274.7 827.732 275.2V283H831.392V273.955C831.392 273.575 831.357 273.07 831.287 272.44C831.227 271.81 831.087 271.145 830.867 270.445C830.647 269.745 830.307 269.085 829.847 268.465C829.387 267.835 828.762 267.325 827.972 266.935C827.192 266.535 826.207 266.335 825.017 266.335C823.847 266.335 822.817 266.54 821.927 266.95C821.047 267.35 820.312 267.9 819.722 268.6V261.4H816.497V283ZM841.561 283.45C843.181 283.45 844.596 283.09 845.806 282.37C847.016 281.64 847.956 280.635 848.626 279.355C849.306 278.065 849.646 276.58 849.646 274.9C849.646 273.23 849.311 271.755 848.641 270.475C847.971 269.185 847.031 268.175 845.821 267.445C844.611 266.715 843.191 266.35 841.561 266.35C839.971 266.35 838.571 266.71 837.361 267.43C836.151 268.15 835.206 269.15 834.526 270.43C833.846 271.71 833.506 273.2 833.506 274.9C833.506 276.57 833.836 278.05 834.496 279.34C835.166 280.62 836.106 281.625 837.316 282.355C838.526 283.085 839.941 283.45 841.561 283.45ZM841.561 280.06C840.171 280.06 839.116 279.595 838.396 278.665C837.686 277.725 837.331 276.47 837.331 274.9C837.331 273.37 837.671 272.13 838.351 271.18C839.041 270.22 840.111 269.74 841.561 269.74C842.981 269.74 844.046 270.21 844.756 271.15C845.466 272.08 845.821 273.33 845.821 274.9C845.821 276.42 845.466 277.66 844.756 278.62C844.056 279.58 842.991 280.06 841.561 280.06ZM852.021 283H855.681V274.675C855.681 273.365 855.866 272.355 856.236 271.645C856.616 270.925 857.096 270.43 857.676 270.16C858.266 269.88 858.866 269.74 859.476 269.74C860.336 269.74 861.021 269.93 861.531 270.31C862.041 270.68 862.416 271.155 862.656 271.735C862.906 272.305 863.066 272.9 863.136 273.52C863.216 274.14 863.256 274.7 863.256 275.2V283H866.916V273.955C866.916 273.575 866.881 273.07 866.811 272.44C866.751 271.81 866.611 271.145 866.391 270.445C866.171 269.745 865.831 269.085 865.371 268.465C864.911 267.835 864.286 267.325 863.496 266.935C862.716 266.535 861.731 266.335 860.541 266.335C859.371 266.335 858.341 266.54 857.451 266.95C856.571 267.35 855.836 267.9 855.246 268.6V266.8H852.021V283Z" fill="black"/>
<rect x="767" y="308" width="427" height="9" fill="#D3DCF8"/>
<rect x="767" y="308" width="393.209" height="9" fill="#2351DC"/>
<rect x="677" y="371" width="80" height="80" rx="12" fill="#EDF1FC"/>
<path d="M698.719 403.938C697.594 406.375 697.031 409.188 697.031 412C697.031 419.969 701.625 426.719 708.281 430L698.719 403.938ZM730.406 411.062C730.406 408.531 729.562 406.844 728.812 405.531C727.781 403.938 726.844 402.531 726.844 400.844C726.844 399.062 728.25 397.281 730.125 397.281C730.219 397.281 730.312 397.281 730.406 397.375C726.844 394.094 722.156 392.125 717 392.125C709.969 392.125 703.875 395.688 700.312 401.125C700.781 401.125 701.156 401.125 701.531 401.125C703.688 401.125 706.875 400.844 706.875 400.844C708 400.75 708.094 402.344 707.062 402.531C707.062 402.531 705.938 402.625 704.719 402.719L712.031 424.281L716.344 411.156L713.25 402.719C712.219 402.625 711.188 402.531 711.188 402.531C710.062 402.438 710.25 400.75 711.281 400.844C711.281 400.844 714.562 401.125 716.531 401.125C718.594 401.125 721.875 400.844 721.875 400.844C722.906 400.75 723.094 402.344 721.969 402.531C721.969 402.531 720.938 402.625 719.719 402.719L726.938 424.094L728.906 417.438C729.75 414.719 730.406 412.75 730.406 411.062ZM717.281 413.781L711.281 431.219C713.156 431.688 715.031 431.969 717 431.969C719.25 431.969 721.5 431.594 723.562 430.844C723.562 430.75 723.469 430.656 723.469 430.562L717.281 413.781ZM734.438 402.438C734.531 403.094 734.625 403.75 734.625 404.5C734.625 406.562 734.25 408.812 733.031 411.625L726.938 429.25C732.938 425.781 736.875 419.406 736.875 412C736.875 408.531 736.031 405.344 734.438 402.438ZM740.25 412C740.25 399.25 729.75 388.75 717 388.75C704.156 388.75 693.75 399.25 693.75 412C693.75 424.844 704.156 435.25 717 435.25C729.75 435.25 740.25 424.844 740.25 412ZM739.125 412C739.125 424.281 729.188 434.219 717 434.219C704.719 434.219 694.781 424.281 694.781 412C694.781 399.812 704.719 389.875 717 389.875C729.188 389.875 739.125 399.812 739.125 412Z" fill="#2351DC"/>
<path d="M773.66 403H777.23L781.64 387.64L786.05 403H789.62L795.92 381.4H792.125L787.835 397L783.53 381.4L779.735 381.43L775.445 397L771.14 381.4H767.345L773.66 403ZM802.835 403.45C804.455 403.45 805.87 403.09 807.08 402.37C808.29 401.64 809.23 400.635 809.9 399.355C810.58 398.065 810.92 396.58 810.92 394.9C810.92 393.23 810.585 391.755 809.915 390.475C809.245 389.185 808.305 388.175 807.095 387.445C805.885 386.715 804.465 386.35 802.835 386.35C801.245 386.35 799.845 386.71 798.635 387.43C797.425 388.15 796.48 389.15 795.8 390.43C795.12 391.71 794.78 393.2 794.78 394.9C794.78 396.57 795.11 398.05 795.77 399.34C796.44 400.62 797.38 401.625 798.59 402.355C799.8 403.085 801.215 403.45 802.835 403.45ZM802.835 400.06C801.445 400.06 800.39 399.595 799.67 398.665C798.96 397.725 798.605 396.47 798.605 394.9C798.605 393.37 798.945 392.13 799.625 391.18C800.315 390.22 801.385 389.74 802.835 389.74C804.255 389.74 805.32 390.21 806.03 391.15C806.74 392.08 807.095 393.33 807.095 394.9C807.095 396.42 806.74 397.66 806.03 398.62C805.33 399.58 804.265 400.06 802.835 400.06ZM813.325 403H816.955V394.765C816.955 393.825 817.125 392.99 817.465 392.26C817.815 391.53 818.36 390.965 819.1 390.565C819.6 390.275 820.16 390.105 820.78 390.055C821.4 389.995 821.955 390.035 822.445 390.175V386.8C821.715 386.69 820.965 386.705 820.195 386.845C819.425 386.975 818.74 387.245 818.14 387.655C817.8 387.865 817.495 388.12 817.225 388.42C816.955 388.71 816.72 389.035 816.52 389.395V386.8H813.325V403ZM830.61 403.45C831.57 403.45 832.435 403.305 833.205 403.015C833.975 402.725 834.65 402.32 835.23 401.8V403H838.425V381.4H834.78V387.595C834.24 387.195 833.635 386.89 832.965 386.68C832.295 386.46 831.555 386.35 830.745 386.35C829.215 386.35 827.885 386.72 826.755 387.46C825.635 388.2 824.765 389.215 824.145 390.505C823.525 391.795 823.215 393.26 823.215 394.9C823.215 396.52 823.52 397.975 824.13 399.265C824.74 400.555 825.6 401.575 826.71 402.325C827.82 403.075 829.12 403.45 830.61 403.45ZM831.165 400.21C830.225 400.21 829.45 399.975 828.84 399.505C828.23 399.025 827.775 398.385 827.475 397.585C827.185 396.785 827.04 395.89 827.04 394.9C827.04 393.92 827.19 393.03 827.49 392.23C827.8 391.42 828.265 390.78 828.885 390.31C829.515 389.83 830.315 389.59 831.285 389.59C832.665 389.59 833.665 390.08 834.285 391.06C834.915 392.04 835.23 393.32 835.23 394.9C835.23 396.47 834.915 397.75 834.285 398.74C833.665 399.72 832.625 400.21 831.165 400.21ZM841.73 403H845.345V395.455H850.655C850.855 395.455 851.12 395.445 851.45 395.425C851.79 395.405 852.1 395.375 852.38 395.335C854.24 395.045 855.62 394.27 856.52 393.01C857.43 391.74 857.885 390.215 857.885 388.435C857.885 386.645 857.435 385.12 856.535 383.86C855.645 382.59 854.26 381.81 852.38 381.52C852.1 381.47 851.795 381.44 851.465 381.43C851.135 381.41 850.865 381.4 850.655 381.4H841.73V403ZM845.345 392.08V384.79H850.505C850.705 384.79 850.93 384.8 851.18 384.82C851.43 384.84 851.66 384.875 851.87 384.925C852.47 385.075 852.94 385.345 853.28 385.735C853.63 386.115 853.875 386.545 854.015 387.025C854.165 387.505 854.24 387.975 854.24 388.435C854.24 388.895 854.165 389.365 854.015 389.845C853.875 390.325 853.63 390.755 853.28 391.135C852.94 391.515 852.47 391.78 851.87 391.93C851.66 391.99 851.43 392.03 851.18 392.05C850.93 392.07 850.705 392.08 850.505 392.08H845.345ZM859.991 403H863.621V394.765C863.621 393.825 863.791 392.99 864.131 392.26C864.481 391.53 865.026 390.965 865.766 390.565C866.266 390.275 866.826 390.105 867.446 390.055C868.066 389.995 868.621 390.035 869.111 390.175V386.8C868.381 386.69 867.631 386.705 866.861 386.845C866.091 386.975 865.406 387.245 864.806 387.655C864.466 387.865 864.161 388.12 863.891 388.42C863.621 388.71 863.386 389.035 863.186 389.395V386.8H859.991V403ZM878.145 403.45C879.705 403.45 881.13 403.05 882.42 402.25C883.72 401.44 884.68 400.3 885.3 398.83L881.73 397.75C881.01 399.29 879.745 400.06 877.935 400.06C876.705 400.06 875.735 399.705 875.025 398.995C874.315 398.275 873.89 397.245 873.75 395.905H885.48C885.62 393.955 885.405 392.265 884.835 390.835C884.265 389.405 883.39 388.3 882.21 387.52C881.04 386.74 879.615 386.35 877.935 386.35C876.345 386.35 874.945 386.71 873.735 387.43C872.525 388.14 871.58 389.15 870.9 390.46C870.22 391.77 869.88 393.31 869.88 395.08C869.88 396.72 870.225 398.17 870.915 399.43C871.615 400.69 872.585 401.675 873.825 402.385C875.065 403.095 876.505 403.45 878.145 403.45ZM878.085 389.515C879.205 389.515 880.065 389.81 880.665 390.4C881.275 390.98 881.66 391.905 881.82 393.175H873.84C874.27 390.735 875.685 389.515 878.085 389.515ZM894.182 403.45C896.272 403.45 897.907 402.985 899.087 402.055C900.277 401.125 900.872 399.845 900.872 398.215C900.872 396.955 900.472 395.965 899.672 395.245C898.882 394.525 897.517 393.915 895.577 393.415C894.317 393.095 893.367 392.825 892.727 392.605C892.097 392.385 891.677 392.165 891.467 391.945C891.257 391.725 891.152 391.46 891.152 391.15C891.152 390.61 891.412 390.19 891.932 389.89C892.452 389.58 893.137 389.445 893.987 389.485C894.867 389.535 895.572 389.76 896.102 390.16C896.642 390.56 896.962 391.105 897.062 391.795L900.752 391.135C900.552 389.675 899.837 388.515 898.607 387.655C897.377 386.785 895.817 386.35 893.927 386.35C891.997 386.35 890.452 386.8 889.292 387.7C888.132 388.6 887.552 389.81 887.552 391.33C887.552 392.54 887.957 393.495 888.767 394.195C889.587 394.895 891.012 395.51 893.042 396.04C894.262 396.36 895.162 396.63 895.742 396.85C896.332 397.06 896.717 397.275 896.897 397.495C897.077 397.715 897.167 398.01 897.167 398.38C897.167 398.98 896.927 399.455 896.447 399.805C895.967 400.145 895.297 400.315 894.437 400.315C893.447 400.315 892.622 400.085 891.962 399.625C891.312 399.165 890.897 398.535 890.717 397.735L887.027 398.305C887.297 399.935 888.057 401.2 889.307 402.1C890.557 403 892.182 403.45 894.182 403.45ZM909.512 403.45C911.602 403.45 913.237 402.985 914.417 402.055C915.607 401.125 916.202 399.845 916.202 398.215C916.202 396.955 915.802 395.965 915.002 395.245C914.212 394.525 912.847 393.915 910.907 393.415C909.647 393.095 908.697 392.825 908.057 392.605C907.427 392.385 907.007 392.165 906.797 391.945C906.587 391.725 906.482 391.46 906.482 391.15C906.482 390.61 906.742 390.19 907.262 389.89C907.782 389.58 908.467 389.445 909.317 389.485C910.197 389.535 910.902 389.76 911.432 390.16C911.972 390.56 912.292 391.105 912.392 391.795L916.082 391.135C915.882 389.675 915.167 388.515 913.937 387.655C912.707 386.785 911.147 386.35 909.257 386.35C907.327 386.35 905.782 386.8 904.622 387.7C903.462 388.6 902.882 389.81 902.882 391.33C902.882 392.54 903.287 393.495 904.097 394.195C904.917 394.895 906.342 395.51 908.372 396.04C909.592 396.36 910.492 396.63 911.072 396.85C911.662 397.06 912.047 397.275 912.227 397.495C912.407 397.715 912.497 398.01 912.497 398.38C912.497 398.98 912.257 399.455 911.777 399.805C911.297 400.145 910.627 400.315 909.767 400.315C908.777 400.315 907.952 400.085 907.292 399.625C906.642 399.165 906.227 398.535 906.047 397.735L902.357 398.305C902.627 399.935 903.387 401.2 904.637 402.1C905.887 403 907.512 403.45 909.512 403.45Z" fill="black"/>
<rect x="767" y="428" width="427" height="9" fill="#D3DCF8"/>
<rect x="767" y="428" width="393.209" height="9" fill="#2351DC"/>
<rect x="677" y="491" width="80" height="80" rx="12" fill="#EDF1FC"/>
<path d="M699 511L702.188 548.125L716.906 553L731.719 548.125L735 511H699ZM727.875 523H710.625L711 527.688H727.5L726.188 541.562L717 544.094H716.906L707.625 541.562L707.062 534.438H711.562L711.938 538L716.906 539.406L721.969 538L722.531 532.188H706.875L705.656 518.594H728.25L727.875 523Z" fill="#2351DC"/>
<path d="M769.1 523H772.715V513.88H782.945V523H786.545V501.4H782.945V510.49H772.715V501.4H769.1V523ZM795.04 523H798.655V504.79H805.645V501.4H788.05V504.79H795.04V523ZM807.144 523H810.534V509.155L817.149 523H818.589L825.219 509.155V523H828.594V501.4H825.339L817.869 516.7L810.399 501.4H807.144V523ZM832.208 523H845.363V519.61H835.823V501.4H832.208V523Z" fill="black"/>
<rect x="767" y="548" width="427" height="9" fill="#D3DCF8"/>
<rect x="767" y="548" width="393.209" height="9" fill="#2351DC"/>
<rect x="120" y="251" width="80" height="80" rx="12" fill="#EDF1FC"/>
<path d="M160 277.844C176.031 277.844 188.406 284.594 188.406 292C188.406 299.5 176.031 306.25 160 306.25C143.875 306.25 131.5 299.5 131.5 292C131.5 284.594 143.875 277.844 160 277.844ZM160 276.25C143.406 276.25 130 283.281 130 292C130 300.719 143.406 307.844 160 307.844C176.5 307.844 190 300.719 190 292C190 283.281 176.5 276.25 160 276.25ZM150.438 290.781C149.688 294.531 147.062 294.156 143.875 294.156L145.094 287.594C148.656 287.594 151.094 287.219 150.438 290.781ZM139.094 300.906H142.562L143.312 296.688C147.156 296.688 149.594 296.969 151.844 294.906C154.281 292.656 154.844 288.625 153.156 286.656C152.219 285.625 150.812 285.062 148.75 285.062H142.188L139.094 300.906ZM156.531 280.844L153.438 296.688H156.812L158.594 287.594C161.406 287.594 162.531 287.5 163.094 288.062C163.562 288.625 163.281 289.188 161.875 296.688H165.344C166.844 289 167.5 287.312 166.094 286.094C164.781 284.875 162.062 285.062 159.062 285.062L159.906 280.844H156.531ZM177.344 290.781C176.594 294.625 173.875 294.156 170.688 294.156L172 287.594C175.562 287.594 178 287.219 177.344 290.781ZM166 300.906H169.469L170.219 296.688C174.25 296.688 176.5 296.875 178.656 294.906C181.188 292.656 181.75 288.625 180.062 286.656C179.125 285.625 177.625 285.062 175.656 285.062H169.094L166 300.906Z" fill="#2351DC"/>
<path d="M211.68 290H214.188V283.796H218.664C218.824 283.796 219.028 283.788 219.276 283.772C219.532 283.756 219.772 283.732 219.996 283.7C221.436 283.468 222.516 282.852 223.236 281.852C223.964 280.852 224.328 279.652 224.328 278.252C224.328 276.852 223.968 275.652 223.248 274.652C222.528 273.652 221.444 273.04 219.996 272.816C219.772 272.776 219.536 272.752 219.288 272.744C219.04 272.728 218.832 272.72 218.664 272.72H211.68V290ZM214.188 281.42V275.084H218.568C218.728 275.084 218.904 275.092 219.096 275.108C219.296 275.124 219.484 275.156 219.66 275.204C220.428 275.38 220.972 275.772 221.292 276.38C221.612 276.988 221.772 277.612 221.772 278.252C221.772 278.884 221.612 279.508 221.292 280.124C220.972 280.732 220.428 281.128 219.66 281.312C219.484 281.352 219.296 281.38 219.096 281.396C218.904 281.412 218.728 281.42 218.568 281.42H214.188ZM226.247 290H228.755V282.536H237.395V290H239.915V272.72H237.395V280.172H228.755V272.72H226.247V290ZM242.806 290H245.314V283.796H249.79C249.95 283.796 250.154 283.788 250.402 283.772C250.658 283.756 250.898 283.732 251.122 283.7C252.562 283.468 253.642 282.852 254.362 281.852C255.09 280.852 255.454 279.652 255.454 278.252C255.454 276.852 255.094 275.652 254.374 274.652C253.654 273.652 252.57 273.04 251.122 272.816C250.898 272.776 250.662 272.752 250.414 272.744C250.166 272.728 249.958 272.72 249.79 272.72H242.806V290ZM245.314 281.42V275.084H249.694C249.854 275.084 250.03 275.092 250.222 275.108C250.422 275.124 250.61 275.156 250.786 275.204C251.554 275.38 252.098 275.772 252.418 276.38C252.738 276.988 252.898 277.612 252.898 278.252C252.898 278.884 252.738 279.508 252.418 280.124C252.098 280.732 251.554 281.128 250.786 281.312C250.61 281.352 250.422 281.38 250.222 281.396C250.03 281.412 249.854 281.42 249.694 281.42H245.314Z" fill="black"/>
<rect x="210" y="309" width="427" height="9" fill="#D3DCF8"/>
<rect x="210" y="309" width="393.209" height="9" fill="#2351DC"/>
<rect x="120" y="371" width="80" height="80" rx="12" fill="#EDF1FC"/>
<path d="M139 390V432H181V390H139ZM161.781 422.812C161.781 426.844 159.438 428.719 155.875 428.719C152.781 428.719 150.906 427.125 149.969 425.156L153.25 423.188C153.812 424.312 154.375 425.25 155.781 425.25C157 425.25 157.844 424.688 157.844 422.719V409.312H161.781V422.812ZM171.156 428.719C167.5 428.719 165.156 427.031 163.938 424.688L167.219 422.906C168.062 424.219 169.094 425.25 171.062 425.25C172.656 425.25 173.781 424.406 173.781 423.281C173.781 421.969 172.656 421.5 170.875 420.656L169.844 420.281C167.031 419.062 165.156 417.562 165.156 414.281C165.156 411.375 167.406 409.125 170.969 409.125C173.406 409.125 175.281 409.969 176.5 412.219L173.5 414.188C172.75 413.062 172.094 412.5 170.875 412.5C169.75 412.5 169 413.25 169 414.188C169 415.406 169.75 415.875 171.438 416.625L172.469 417.094C175.844 418.5 177.719 420 177.719 423.281C177.719 426.844 174.906 428.719 171.156 428.719Z" fill="#2351DC"/>
<path d="M214.968 410.348C215.864 410.348 216.684 410.164 217.428 409.796C218.172 409.428 218.772 408.848 219.228 408.056C219.556 407.496 219.732 406.952 219.756 406.424C219.78 405.888 219.792 405.236 219.792 404.468V392.72H217.248V404.468C217.248 404.972 217.236 405.412 217.212 405.788C217.188 406.156 217.108 406.48 216.972 406.76C216.772 407.2 216.468 407.516 216.06 407.708C215.652 407.892 215.26 407.984 214.884 407.984C214.308 407.984 213.792 407.796 213.336 407.42C212.88 407.036 212.596 406.576 212.484 406.04L210 406.628C210.328 407.764 210.92 408.668 211.776 409.34C212.64 410.012 213.704 410.348 214.968 410.348ZM226.339 410.36C228.403 410.36 229.959 409.612 231.007 408.116V410H233.227V402.02C233.227 401.476 233.203 400.968 233.155 400.496C233.107 400.024 232.979 399.576 232.771 399.152C232.371 398.296 231.739 397.672 230.875 397.28C230.019 396.88 229.011 396.68 227.851 396.68C226.355 396.68 225.155 397.008 224.251 397.664C223.347 398.32 222.739 399.204 222.427 400.316L224.767 401.036C224.991 400.316 225.387 399.796 225.955 399.476C226.523 399.156 227.147 398.996 227.827 398.996C228.835 398.996 229.563 399.212 230.011 399.644C230.467 400.068 230.715 400.728 230.755 401.624C229.699 401.768 228.667 401.92 227.659 402.08C226.651 402.232 225.771 402.416 225.019 402.632C224.019 402.952 223.259 403.428 222.739 404.06C222.219 404.692 221.959 405.496 221.959 406.472C221.959 407.176 222.123 407.824 222.451 408.416C222.787 409 223.279 409.472 223.927 409.832C224.583 410.184 225.387 410.36 226.339 410.36ZM226.783 408.308C225.983 408.308 225.391 408.124 225.007 407.756C224.631 407.388 224.443 406.952 224.443 406.448C224.443 405.936 224.611 405.532 224.947 405.236C225.291 404.94 225.719 404.704 226.231 404.528C226.775 404.368 227.415 404.228 228.151 404.108C228.895 403.988 229.755 403.856 230.731 403.712C230.723 404.016 230.703 404.356 230.671 404.732C230.639 405.108 230.571 405.444 230.467 405.74C230.371 406.164 230.167 406.572 229.855 406.964C229.551 407.356 229.139 407.68 228.619 407.936C228.107 408.184 227.495 408.308 226.783 408.308ZM238.658 410H241.202L245.906 397.04H243.374L239.93 406.856L236.486 397.04H233.954L238.658 410ZM250.282 410.36C252.346 410.36 253.902 409.612 254.95 408.116V410H257.17V402.02C257.17 401.476 257.146 400.968 257.098 400.496C257.05 400.024 256.922 399.576 256.714 399.152C256.314 398.296 255.682 397.672 254.818 397.28C253.962 396.88 252.954 396.68 251.794 396.68C250.298 396.68 249.098 397.008 248.194 397.664C247.29 398.32 246.682 399.204 246.37 400.316L248.71 401.036C248.934 400.316 249.33 399.796 249.898 399.476C250.466 399.156 251.09 398.996 251.77 398.996C252.778 398.996 253.506 399.212 253.954 399.644C254.41 400.068 254.658 400.728 254.698 401.624C253.642 401.768 252.61 401.92 251.602 402.08C250.594 402.232 249.714 402.416 248.962 402.632C247.962 402.952 247.202 403.428 246.682 404.06C246.162 404.692 245.902 405.496 245.902 406.472C245.902 407.176 246.066 407.824 246.394 408.416C246.73 409 247.222 409.472 247.87 409.832C248.526 410.184 249.33 410.36 250.282 410.36ZM250.726 408.308C249.926 408.308 249.334 408.124 248.95 407.756C248.574 407.388 248.386 406.952 248.386 406.448C248.386 405.936 248.554 405.532 248.89 405.236C249.234 404.94 249.662 404.704 250.174 404.528C250.718 404.368 251.358 404.228 252.094 404.108C252.838 403.988 253.698 403.856 254.674 403.712C254.666 404.016 254.646 404.356 254.614 404.732C254.582 405.108 254.514 405.444 254.41 405.74C254.314 406.164 254.11 406.572 253.798 406.964C253.494 407.356 253.082 407.68 252.562 407.936C252.05 408.184 251.438 408.308 250.726 408.308ZM264.522 410.348C266.162 410.348 267.446 409.984 268.374 409.256C269.31 408.528 269.778 407.524 269.778 406.244C269.778 405.572 269.638 405.004 269.358 404.54C269.086 404.076 268.63 403.676 267.99 403.34C267.35 402.996 266.486 402.684 265.398 402.404C264.382 402.148 263.614 401.928 263.094 401.744C262.582 401.552 262.234 401.36 262.05 401.168C261.866 400.968 261.774 400.724 261.774 400.436C261.774 399.94 262.01 399.552 262.482 399.272C262.954 398.984 263.57 398.856 264.33 398.888C265.122 398.92 265.766 399.12 266.262 399.488C266.758 399.848 267.05 400.336 267.138 400.952L269.706 400.484C269.562 399.332 268.998 398.412 268.014 397.724C267.03 397.028 265.794 396.68 264.306 396.68C262.786 396.68 261.566 397.036 260.646 397.748C259.726 398.452 259.266 399.392 259.266 400.568C259.266 401.2 259.402 401.74 259.674 402.188C259.954 402.628 260.418 403.012 261.066 403.34C261.722 403.668 262.606 403.98 263.718 404.276C264.734 404.548 265.49 404.776 265.986 404.96C266.482 405.144 266.806 405.34 266.958 405.548C267.118 405.748 267.198 406.012 267.198 406.34C267.198 406.9 266.974 407.34 266.526 407.66C266.086 407.98 265.474 408.14 264.69 408.14C263.826 408.14 263.102 407.948 262.518 407.564C261.942 407.18 261.574 406.648 261.414 405.968L258.846 406.364C259.07 407.628 259.678 408.608 260.67 409.304C261.662 410 262.946 410.348 264.522 410.348ZM277.257 410.36C278.649 410.36 279.833 410.024 280.809 409.352C281.785 408.68 282.485 407.708 282.909 406.436L280.365 405.836C280.101 406.532 279.717 407.068 279.213 407.444C278.717 407.812 278.065 407.996 277.257 407.996C276.073 407.996 275.177 407.584 274.569 406.76C273.969 405.936 273.665 404.856 273.657 403.52C273.665 402.224 273.957 401.156 274.533 400.316C275.117 399.468 276.025 399.044 277.257 399.044C277.985 399.044 278.629 399.248 279.189 399.656C279.757 400.056 280.165 400.62 280.413 401.348L282.909 400.628C282.589 399.412 281.925 398.452 280.917 397.748C279.917 397.036 278.709 396.68 277.293 396.68C275.989 396.68 274.865 396.972 273.921 397.556C272.985 398.14 272.265 398.948 271.761 399.98C271.257 401.004 271.001 402.184 270.993 403.52C271.001 404.832 271.249 406.004 271.737 407.036C272.233 408.068 272.945 408.88 273.873 409.472C274.809 410.064 275.937 410.36 277.257 410.36ZM284.633 410H287.165V403.46C287.165 402.7 287.285 401.996 287.525 401.348C287.765 400.7 288.189 400.18 288.797 399.788C289.229 399.508 289.705 399.344 290.225 399.296C290.745 399.248 291.213 399.28 291.629 399.392V397.04C291.045 396.928 290.425 396.932 289.769 397.052C289.121 397.172 288.553 397.412 288.065 397.772C287.585 398.092 287.185 398.536 286.865 399.104V397.04H284.633V410ZM293.435 394.916H295.943V392.48H293.435V394.916ZM293.435 410H295.943V397.04H293.435V410ZM298.814 415.76H301.334V409.088C301.79 409.496 302.314 409.808 302.906 410.024C303.506 410.248 304.174 410.36 304.91 410.36C306.118 410.36 307.158 410.06 308.03 409.46C308.91 408.852 309.586 408.032 310.058 407C310.538 405.968 310.778 404.804 310.778 403.508C310.778 402.204 310.538 401.04 310.058 400.016C309.578 398.984 308.894 398.172 308.006 397.58C307.126 396.98 306.078 396.68 304.862 396.68C304.062 396.68 303.342 396.816 302.702 397.088C302.062 397.352 301.51 397.724 301.046 398.204V397.04H298.814V415.76ZM304.562 408.092C303.33 408.092 302.434 407.664 301.874 406.808C301.322 405.952 301.046 404.852 301.046 403.508C301.046 402.164 301.322 401.068 301.874 400.22C302.426 399.372 303.294 398.948 304.478 398.948C305.31 398.948 305.994 399.152 306.53 399.56C307.066 399.968 307.462 400.516 307.718 401.204C307.982 401.892 308.114 402.66 308.114 403.508C308.114 404.364 307.986 405.14 307.73 405.836C307.474 406.524 307.082 407.072 306.554 407.48C306.034 407.888 305.37 408.092 304.562 408.092ZM320.124 410V407.876C319.276 408.004 318.536 408.032 317.904 407.96C317.28 407.88 316.824 407.596 316.536 407.108C316.384 406.844 316.3 406.52 316.284 406.136C316.276 405.752 316.272 405.3 316.272 404.78V399.056H320.124V397.04H316.272V393.44H313.752V397.04H311.268V399.056H313.752V404.9C313.752 405.604 313.76 406.236 313.776 406.796C313.8 407.348 313.952 407.892 314.232 408.428C314.552 409.028 315.02 409.468 315.636 409.748C316.252 410.028 316.952 410.18 317.736 410.204C318.52 410.228 319.316 410.16 320.124 410Z" fill="black"/>
<rect x="210" y="429" width="427" height="9" fill="#D3DCF8"/>
<rect x="210" y="429" width="362.95" height="9" fill="#2351DC"/>
<rect x="120" y="491" width="80" height="80" rx="12" fill="#EDF1FC"/>
<path d="M138 515.812V530.062H155.156V513.469L138 515.812ZM138 546.281L155.156 548.625V532.219H138V546.281ZM157.031 548.906L180 552V532.219H157.031V548.906ZM157.031 513.188V530.062H180V510L157.031 513.188Z" fill="#2351DC"/>
<path d="M211.68 530H214.044V518.168L219.636 530H220.776L226.356 518.168V529.988H228.732V512.72H226.44L220.212 525.716L213.948 512.72H211.68V530ZM231.614 514.916H234.122V512.48H231.614V514.916ZM231.614 530H234.122V517.04H231.614V530ZM242.55 530.36C243.942 530.36 245.126 530.024 246.102 529.352C247.078 528.68 247.778 527.708 248.202 526.436L245.658 525.836C245.394 526.532 245.01 527.068 244.506 527.444C244.01 527.812 243.358 527.996 242.55 527.996C241.366 527.996 240.47 527.584 239.862 526.76C239.262 525.936 238.958 524.856 238.95 523.52C238.958 522.224 239.25 521.156 239.826 520.316C240.41 519.468 241.318 519.044 242.55 519.044C243.278 519.044 243.922 519.248 244.482 519.656C245.05 520.056 245.458 520.62 245.706 521.348L248.202 520.628C247.882 519.412 247.218 518.452 246.21 517.748C245.21 517.036 244.002 516.68 242.586 516.68C241.282 516.68 240.158 516.972 239.214 517.556C238.278 518.14 237.558 518.948 237.054 519.98C236.55 521.004 236.294 522.184 236.286 523.52C236.294 524.832 236.542 526.004 237.03 527.036C237.526 528.068 238.238 528.88 239.166 529.472C240.102 530.064 241.23 530.36 242.55 530.36ZM249.926 530H252.458V523.46C252.458 522.7 252.578 521.996 252.818 521.348C253.058 520.7 253.482 520.18 254.09 519.788C254.522 519.508 254.998 519.344 255.518 519.296C256.038 519.248 256.506 519.28 256.922 519.392V517.04C256.338 516.928 255.718 516.932 255.062 517.052C254.414 517.172 253.846 517.412 253.358 517.772C252.878 518.092 252.478 518.536 252.158 519.104V517.04H249.926V530ZM263.881 530.36C265.169 530.36 266.289 530.072 267.241 529.496C268.193 528.912 268.929 528.108 269.449 527.084C269.977 526.052 270.241 524.86 270.241 523.508C270.241 522.172 269.981 520.992 269.461 519.968C268.941 518.936 268.205 518.132 267.253 517.556C266.301 516.972 265.177 516.68 263.881 516.68C262.609 516.68 261.497 516.968 260.545 517.544C259.593 518.12 258.853 518.92 258.325 519.944C257.797 520.968 257.533 522.156 257.533 523.508C257.533 524.844 257.793 526.028 258.313 527.06C258.833 528.092 259.565 528.9 260.509 529.484C261.461 530.068 262.585 530.36 263.881 530.36ZM263.881 527.996C262.673 527.996 261.757 527.592 261.133 526.784C260.509 525.968 260.197 524.876 260.197 523.508C260.197 522.188 260.497 521.116 261.097 520.292C261.697 519.46 262.625 519.044 263.881 519.044C265.105 519.044 266.025 519.448 266.641 520.256C267.265 521.064 267.577 522.148 267.577 523.508C267.577 524.836 267.269 525.916 266.653 526.748C266.045 527.58 265.121 527.996 263.881 527.996ZM276.88 530.348C278.52 530.348 279.804 529.984 280.732 529.256C281.668 528.528 282.136 527.524 282.136 526.244C282.136 525.572 281.996 525.004 281.716 524.54C281.444 524.076 280.988 523.676 280.348 523.34C279.708 522.996 278.844 522.684 277.756 522.404C276.74 522.148 275.972 521.928 275.452 521.744C274.94 521.552 274.592 521.36 274.408 521.168C274.224 520.968 274.132 520.724 274.132 520.436C274.132 519.94 274.368 519.552 274.84 519.272C275.312 518.984 275.928 518.856 276.688 518.888C277.48 518.92 278.124 519.12 278.62 519.488C279.116 519.848 279.408 520.336 279.496 520.952L282.064 520.484C281.92 519.332 281.356 518.412 280.372 517.724C279.388 517.028 278.152 516.68 276.664 516.68C275.144 516.68 273.924 517.036 273.004 517.748C272.084 518.452 271.624 519.392 271.624 520.568C271.624 521.2 271.76 521.74 272.032 522.188C272.312 522.628 272.776 523.012 273.424 523.34C274.08 523.668 274.964 523.98 276.076 524.276C277.092 524.548 277.848 524.776 278.344 524.96C278.84 525.144 279.164 525.34 279.316 525.548C279.476 525.748 279.556 526.012 279.556 526.34C279.556 526.9 279.332 527.34 278.884 527.66C278.444 527.98 277.832 528.14 277.048 528.14C276.184 528.14 275.46 527.948 274.876 527.564C274.3 527.18 273.932 526.648 273.772 525.968L271.204 526.364C271.428 527.628 272.036 528.608 273.028 529.304C274.02 530 275.304 530.348 276.88 530.348ZM289.699 530.36C290.987 530.36 292.107 530.072 293.059 529.496C294.011 528.912 294.747 528.108 295.267 527.084C295.795 526.052 296.059 524.86 296.059 523.508C296.059 522.172 295.799 520.992 295.279 519.968C294.759 518.936 294.023 518.132 293.071 517.556C292.119 516.972 290.995 516.68 289.699 516.68C288.427 516.68 287.315 516.968 286.363 517.544C285.411 518.12 284.671 518.92 284.143 519.944C283.615 520.968 283.351 522.156 283.351 523.508C283.351 524.844 283.611 526.028 284.131 527.06C284.651 528.092 285.383 528.9 286.327 529.484C287.279 530.068 288.403 530.36 289.699 530.36ZM289.699 527.996C288.491 527.996 287.575 527.592 286.951 526.784C286.327 525.968 286.015 524.876 286.015 523.508C286.015 522.188 286.315 521.116 286.915 520.292C287.515 519.46 288.443 519.044 289.699 519.044C290.923 519.044 291.843 519.448 292.459 520.256C293.083 521.064 293.395 522.148 293.395 523.508C293.395 524.836 293.087 525.916 292.471 526.748C291.863 527.58 290.939 527.996 289.699 527.996ZM299.164 530H301.672V519.056H304.948V517.04H301.672V516.104C301.672 514.984 302.26 514.424 303.436 514.424H304.948V512.36H303.316C302.996 512.36 302.64 512.376 302.248 512.408C301.856 512.432 301.464 512.516 301.072 512.66C300.688 512.804 300.328 513.06 299.992 513.428C299.576 513.884 299.332 514.4 299.26 514.976C299.196 515.552 299.164 516.088 299.164 516.584V517.04H297.016V519.056H299.164V530ZM313.555 530V527.876C312.707 528.004 311.967 528.032 311.335 527.96C310.711 527.88 310.255 527.596 309.967 527.108C309.815 526.844 309.731 526.52 309.715 526.136C309.707 525.752 309.703 525.3 309.703 524.78V519.056H313.555V517.04H309.703V513.44H307.183V517.04H304.699V519.056H307.183V524.9C307.183 525.604 307.191 526.236 307.207 526.796C307.231 527.348 307.383 527.892 307.663 528.428C307.983 529.028 308.451 529.468 309.067 529.748C309.683 530.028 310.383 530.18 311.167 530.204C311.951 530.228 312.747 530.16 313.555 530ZM326.864 530.36C328.592 530.36 330.064 529.98 331.28 529.22C332.496 528.46 333.424 527.408 334.064 526.064C334.704 524.712 335.024 523.144 335.024 521.36C335.024 519.576 334.704 518.012 334.064 516.668C333.424 515.316 332.496 514.26 331.28 513.5C330.064 512.74 328.592 512.36 326.864 512.36C325.136 512.36 323.664 512.74 322.448 513.5C321.232 514.26 320.3 515.316 319.652 516.668C319.012 518.012 318.692 519.576 318.692 521.36C318.692 523.144 319.012 524.712 319.652 526.064C320.3 527.408 321.232 528.46 322.448 529.22C323.664 529.98 325.136 530.36 326.864 530.36ZM326.864 527.972C325.032 527.956 323.652 527.344 322.724 526.136C321.804 524.928 321.348 523.336 321.356 521.36C321.364 520.04 321.568 518.884 321.968 517.892C322.376 516.892 322.988 516.116 323.804 515.564C324.62 515.004 325.64 514.732 326.864 514.748C328.704 514.756 330.08 515.364 330.992 516.572C331.904 517.78 332.36 519.376 332.36 521.36C332.36 522.68 332.156 523.84 331.748 524.84C331.348 525.832 330.74 526.604 329.924 527.156C329.108 527.708 328.088 527.98 326.864 527.972ZM337.886 530H340.394V519.056H343.67V517.04H340.394V516.104C340.394 514.984 340.982 514.424 342.158 514.424H343.67V512.36H342.038C341.718 512.36 341.362 512.376 340.97 512.408C340.578 512.432 340.186 512.516 339.794 512.66C339.41 512.804 339.05 513.06 338.714 513.428C338.298 513.884 338.054 514.4 337.982 514.976C337.918 515.552 337.886 516.088 337.886 516.584V517.04H335.738V519.056H337.886V530ZM345.734 530H348.242V519.056H351.518V517.04H348.242V516.104C348.242 514.984 348.83 514.424 350.006 514.424H351.518V512.36H349.886C349.566 512.36 349.21 512.376 348.818 512.408C348.426 512.432 348.034 512.516 347.642 512.66C347.258 512.804 346.898 513.06 346.562 513.428C346.146 513.884 345.902 514.4 345.83 514.976C345.766 515.552 345.734 516.088 345.734 516.584V517.04H343.586V519.056H345.734V530ZM353.303 514.916H355.811V512.48H353.303V514.916ZM353.303 530H355.811V517.04H353.303V530ZM364.239 530.36C365.631 530.36 366.815 530.024 367.791 529.352C368.767 528.68 369.467 527.708 369.891 526.436L367.347 525.836C367.083 526.532 366.699 527.068 366.195 527.444C365.699 527.812 365.047 527.996 364.239 527.996C363.055 527.996 362.159 527.584 361.551 526.76C360.951 525.936 360.647 524.856 360.639 523.52C360.647 522.224 360.939 521.156 361.515 520.316C362.099 519.468 363.007 519.044 364.239 519.044C364.967 519.044 365.611 519.248 366.171 519.656C366.739 520.056 367.147 520.62 367.395 521.348L369.891 520.628C369.571 519.412 368.907 518.452 367.899 517.748C366.899 517.036 365.691 516.68 364.275 516.68C362.971 516.68 361.847 516.972 360.903 517.556C359.967 518.14 359.247 518.948 358.743 519.98C358.239 521.004 357.983 522.184 357.975 523.52C357.983 524.832 358.231 526.004 358.719 527.036C359.215 528.068 359.927 528.88 360.855 529.472C361.791 530.064 362.919 530.36 364.239 530.36ZM377.012 530.36C378.268 530.36 379.408 530.044 380.432 529.412C381.456 528.772 382.22 527.872 382.724 526.712L380.264 525.932C379.608 527.308 378.484 527.996 376.892 527.996C375.804 527.996 374.948 527.668 374.324 527.012C373.7 526.356 373.336 525.428 373.232 524.228H382.892C382.98 522.676 382.796 521.336 382.34 520.208C381.884 519.08 381.192 518.212 380.264 517.604C379.336 516.988 378.212 516.68 376.892 516.68C375.628 516.68 374.52 516.964 373.568 517.532C372.616 518.1 371.872 518.904 371.336 519.944C370.808 520.984 370.544 522.212 370.544 523.628C370.544 524.964 370.812 526.14 371.348 527.156C371.892 528.164 372.648 528.952 373.616 529.52C374.592 530.08 375.724 530.36 377.012 530.36ZM376.988 518.9C378.948 518.9 380.06 520.024 380.324 522.272H373.292C373.452 521.176 373.84 520.34 374.456 519.764C375.072 519.188 375.916 518.9 376.988 518.9Z" fill="black"/>
<rect x="210" y="549" width="427" height="9" fill="#D3DCF8"/>
<rect x="210" y="549" width="384.3" height="9" fill="#2351DC"/>
</svg>
